# xmcd
#
# Track frame offsets:
#	150
#	9739
#	23909
#	40624
#	49901
#	64026
#	74042
#	82614
#	94421
#	118259
#	131166
#	145111
#	156502
#	172387
#	186794
#
# Disc length: 2664 seconds
#
# Revision: 0
# Processed by: cddbd v1.5.2PL0 Copyright (c) Steve Scherf et al.
# Submitted via: audiograbber 1.83.01
#
DISCID=dc0a660f
DTITLE=Original Tiroler Alpenbummler - Feste soll man feiern
DYEAR=2011
DGENRE=volkstümlich
TTITLE0=Gruß an Härtlingen 
TTITLE1=Feste soll man feiern
TTITLE2=Abends beim Wein
TTITLE3=Boarisch tanz'n alle Leut
TTITLE4=Mein schönes Tiroler Land
TTITLE5=Marillala
TTITLE6=Gute Laune Polka
TTITLE7=Zammkemma Boarischer
TTITLE8=Bummler Potpourrie
TTITLE9=Das schöne Mädchen von der Bank
TTITLE10=Heut schlag'n ma nu a Fassl an
TTITLE11=Von Albach bis L.A.ndeck
TTITLE12=Frei wie ein Adler
TTITLE13=Steck dir deine Sorgen an den Hut
TTITLE14=Jodeladi hiep hiep 
EXTD=
EXTT0=
EXTT1=
EXTT2=
EXTT3=
EXTT4=
EXTT5=
EXTT6=
EXTT7=
EXTT8=
EXTT9=
EXTT10=
EXTT11=
EXTT12=
EXTT13=
EXTT14=
PLAYORDER=
